<svg width="22" height="21" viewBox="0 0 22 21" fill="none" xmlns="http://www.w3.org/2000/svg">
<g id="&#229;&#149;&#134;&#229;&#174;&#182;&#229;&#156;&#176;&#229;&#157;&#128;&#229;&#186;&#147;">
<path id="Combined Shape" fill-rule="evenodd" clip-rule="evenodd" d="M5.66206 6.00887C5.66206 10.4533 10.9953 14.4533 10.9953 14.4533C10.9953 14.4533 16.3286 10.4533 16.3286 6.00887C16.3286 3.06335 13.9408 0.675537 10.9953 0.675537C8.04986 0.675537 5.66206 3.06335 5.66206 6.00887ZM10.9953 16.0089C10.9961 16.0089 10.984 16.0004 10.9603 15.9838C10.6923 15.7953 8.9333 14.5588 7.29438 12.6755H5.01035C4.56314 12.6755 4.14571 12.8997 3.89875 13.2726L0.366253 18.6059C0.221645 18.8243 0.144531 19.0803 0.144531 19.3422C0.144531 20.0786 0.741478 20.6755 1.47785 20.6755H20.4978C20.762 20.6755 21.0202 20.597 21.2397 20.4501C21.8515 20.0404 22.0154 19.2122 21.6057 18.6003L18.0345 13.267C17.787 12.8974 17.3715 12.6755 16.9267 12.6755H14.6963C13.0574 14.5588 11.2984 15.7953 11.0304 15.9838C11.0067 16.0004 10.9946 16.0089 10.9953 16.0089ZM5.66206 19.3422V18.0089H16.3286V19.3422H5.66206ZM10.9953 8.00887C12.0999 8.00887 12.9953 7.11344 12.9953 6.00887C12.9953 4.9043 12.0999 4.00887 10.9953 4.00887C9.89079 4.00887 8.99537 4.9043 8.99537 6.00887C8.99537 7.11344 9.89079 8.00887 10.9953 8.00887Z" fill="#616164"/>
</g>
</svg>
