<svg width="173" height="93" viewBox="0 0 173 93" fill="none" xmlns="http://www.w3.org/2000/svg">
<path d="M173 1.11523L2.26498e-06 1.11523" stroke="#E3C08D"/>
<path d="M173 9.37753L2.26498e-06 9.37753" stroke="#E3C08D"/>
<path d="M173 17.6398L2.26498e-06 17.6398" stroke="#E3C08D"/>
<path d="M173 25.9021L2.26498e-06 25.9021" stroke="#E3C08D"/>
<path d="M173 34.1644L2.26498e-06 34.1644" stroke="#E3C08D"/>
<path d="M173 42.4267L2.26498e-06 42.4267" stroke="#E3C08D"/>
<path d="M173 50.689L2.26498e-06 50.689" stroke="#E3C08D"/>
<path d="M173 58.9513L2.26498e-06 58.9513" stroke="#E3C08D"/>
<path d="M173 67.2136L2.26498e-06 67.2136" stroke="#E3C08D"/>
<path d="M173 75.4759L2.26498e-06 75.4759" stroke="#E3C08D"/>
<path d="M173 83.7382L2.26498e-06 83.7382" stroke="#E3C08D"/>
<path d="M173 92.0005L2.26498e-06 92.0005" stroke="#E3C08D"/>
</svg>
